<svg width="1776" height="1200" viewBox="0 0 1776 1200" fill="none" xmlns="http://www.w3.org/2000/svg">
<path d="M56.8443 1200C39.4325 1200 25.6055 1195 15.3633 1185C5.12111 1174 0 1159 0 1140V553.5C0 417.5 38.9204 311.5 116.761 235.5C195.626 158.5 304.706 120 444 120C582.27 120 690.837 158.5 769.702 235.5C848.567 312.5 888 418.5 888 553.5V1140C888 1159 988.242 1189 978 1200C996 1200 848.055 1200 829.619 1200C812.208 1200 797.869 1195 786.602 1185C776.36 1174 771.239 1159 771.239 1140V802.5H115.225V1140C115.225 1159 110.104 1174 99.8616 1185C89.6194 1195 75.2803 1200 56.8443 1200ZM771.239 709.5V549C771.239 442 743.073 360 686.74 303C630.408 245 549.495 216 444 216C337.481 216 256.055 244.5 199.723 301.5C143.391 358.5 115.225 441 115.225 549V709.5H771.239Z" fill="black"/>
<path d="M1744.46 15.0323L1760.97 31.5331C1783.71 54.2986 1780.27 94.6556 1753.22 121.672L1412.83 461.952L1302.55 502.281C1288.7 507.371 1275.21 500.771 1272.47 487.598C1271.55 482.819 1271.99 477.878 1273.73 473.335L1314.86 362.136L1654.29 22.7793C1681.34 -4.23724 1721.71 -7.73316 1744.46 15.0323Z" fill="black"/>
<path fill-rule="evenodd" clip-rule="evenodd" d="M1481.91 147.996C1438.97 132.519 1389.08 124.781 1332.21 124.781H968.181C906.741 124.781 858.613 141.165 823.797 173.933C790.005 206.701 773.109 251.757 773.109 309.101V1012.59C773.109 1070.96 790.517 1117.04 825.333 1150.83C860.149 1183.6 908.789 1199.98 971.253 1199.98H1350.65C1452.02 1199.98 1531.89 1172.33 1590.26 1117.04C1648.63 1060.72 1677.81 984.429 1677.81 888.173C1677.81 831.853 1662.45 783.213 1631.73 742.253C1601.01 700.269 1558.52 669.549 1504.25 650.093V647.021C1552.37 626.541 1590.26 596.845 1617.91 557.933C1645.56 517.997 1659.38 471.405 1659.38 418.157C1659.38 368.462 1651.23 324.736 1634.92 286.981L1540.5 381.365C1541.93 393.017 1542.65 405.281 1542.65 418.157C1542.65 474.477 1524.73 519.533 1488.89 553.325C1453.05 587.117 1404.92 604.013 1344.5 604.013H888.309V309.101C888.309 283.501 895.989 262.509 911.349 246.125C926.709 228.717 946.165 220.013 969.717 220.013H1332.21C1358.03 220.013 1381.52 222.405 1402.7 227.189L1481.91 147.996ZM1505.78 1049.45C1468.92 1085.29 1415.16 1103.21 1344.5 1103.21H969.717C946.165 1103.21 926.709 1095.02 911.349 1078.64C895.989 1062.25 888.309 1041.26 888.309 1015.66V697.709H1342.97C1410.55 697.709 1463.8 714.605 1502.71 748.397C1541.62 782.189 1561.08 829.293 1561.08 889.709C1561.08 959.341 1542.65 1012.59 1505.78 1049.45Z" fill="black"/>
</svg>
