<?xml version="1.0" encoding="UTF-8"?><svg id="Capa_13" xmlns="http://www.w3.org/2000/svg" viewBox="0 0 300 113"><defs><style>.cls-1{fill:#8f8d86;}.cls-2{fill:#787878;}.cls-3{fill:#de7141;}.cls-4{fill:#df7a51;}.cls-5{fill:#525252;}.cls-6{fill:#8f8d87;}.cls-7{fill:#dd532a;}.cls-8{fill:#908d87;}.cls-9{fill:#666;}</style></defs><path class="cls-5" d="m57.35,90.13c-.09-.03-.19-.05-.28-.1-.4-.23-.79-.48-1.19-.71-.23-.14-.46-.27-.69-.4-.65-.37-1.3-.72-1.94-1.09-.62-.36-1.23-.73-1.85-1.09-.85-.49-1.71-.97-2.56-1.45-.57-.33-1.13-.68-1.71-1.01-.56-.32-1.13-.62-1.69-.95-.73-.42-1.45-.86-2.18-1.27-1-.57-2.01-1.13-3.01-1.7-.4-.23-.78-.49-1.19-.72-.6-.33-1.19-.68-1.79-1.02-.7-.41-1.41-.8-2.12-1.2-.46-.26-.92-.54-1.38-.81-.73-.42-1.45-.84-2.18-1.26-.88-.51-1.75-1.02-2.63-1.52-.35-.2-.71-.4-1.07-.6.05-.05.09-.11.15-.14.93-.54,1.86-1.08,2.79-1.61.83-.48,1.67-.96,2.5-1.44.97-.56,1.93-1.12,2.9-1.68,1.03-.59,2.06-1.18,3.09-1.77.97-.56,1.93-1.12,2.89-1.68,1.04-.6,2.08-1.19,3.12-1.79,1.16-.67,2.32-1.35,3.48-2.02,1.24-.71,2.48-1.42,3.71-2.13,1.25-.72,2.5-1.44,3.74-2.17.28-.16.55-.34.82-.51.05,0,.1-.02.15-.03.03.03.06.06.08.1.1.22.1.46.1.71,0,10.55,0,21.1,0,31.65,0,.44.03.87-.08,1.3-.01.04,0,.08,0,.13Z"/><path class="cls-4" d="m57.35,22.39c.08.01.17,0,.24.05.76.43,1.52.87,2.28,1.31.56.32,1.13.64,1.69.97,1.28.74,2.57,1.49,3.85,2.23.59.34,1.18.67,1.77,1.01.64.37,1.27.74,1.9,1.11.62.36,1.25.71,1.88,1.07,1.24.73,2.48,1.46,3.73,2.19.07.04.15.09.22.12.96.48,1.88,1.04,2.8,1.59.6.35,1.2.69,1.8,1.04.76.44,1.52.88,2.27,1.31,1.19.68,2.38,1.36,3.57,2.04.49.28.97.58,1.46.87-.04.04-.08.09-.12.11-.45.26-.91.52-1.36.78-.66.38-1.32.76-1.98,1.14-.61.35-1.22.71-1.83,1.06-.64.37-1.27.73-1.91,1.1-.67.39-1.34.78-2.02,1.17-.49.28-.98.57-1.47.85-.78.45-1.57.9-2.35,1.35-.47.27-.93.53-1.4.8-.62.36-1.24.73-1.87,1.09-.64.37-1.28.73-1.91,1.09-.82.47-1.63.95-2.45,1.43-.84.49-1.69.96-2.54,1.45-.97.56-1.93,1.13-2.89,1.69-.9.52-1.81,1.05-2.71,1.57-.17.1-.33.22-.55.21-.03-.01-.06-.02-.09-.03,0-.16,0-.31,0-.47,0-11.1,0-22.2,0-33.3Z"/><path class="cls-2" d="m57.44,56.19c.21,0,.38-.12.55-.21.91-.52,1.81-1.04,2.71-1.57.96-.56,1.92-1.13,2.89-1.69.84-.49,1.69-.96,2.54-1.45.82-.47,1.63-.95,2.45-1.43.64-.37,1.28-.73,1.91-1.09.62-.36,1.24-.72,1.87-1.09.46-.27.93-.53,1.4-.8.78-.45,1.57-.9,2.35-1.35.49-.28.98-.57,1.47-.85.67-.39,1.34-.78,2.02-1.17.64-.37,1.27-.73,1.91-1.1.61-.35,1.22-.71,1.83-1.06.66-.38,1.32-.76,1.98-1.14.45-.26.91-.52,1.36-.78.05-.03.08-.08.12-.11.09.02.16.07.16.17,0,.1,0,.2,0,.3,0,10.27,0,20.54,0,30.82,0,.71,0,1.41,0,2.12,0,.14,0,.28-.02.42,0,.09-.08.11-.15.12-.3-.29-.69-.43-1.04-.64-.63-.38-1.27-.73-1.91-1.09-.62-.36-1.24-.73-1.86-1.09-.65-.37-1.3-.73-1.95-1.11-.83-.48-1.65-.97-2.48-1.45-.51-.3-1.02-.6-1.53-.89-.39-.23-.78-.45-1.17-.67-.33-.19-.67-.36-1-.55-.99-.57-1.97-1.15-2.95-1.73-.49-.28-.97-.57-1.46-.85-.44-.25-.88-.5-1.32-.75-.28-.16-.56-.33-.84-.49-.43-.25-.85-.49-1.28-.74-.5-.29-1-.57-1.5-.86-.41-.24-.83-.48-1.24-.72-.44-.25-.88-.5-1.32-.75-.53-.3-1.05-.61-1.57-.91-.46-.27-.93-.53-1.4-.79-.45-.26-.9-.53-1.35-.8-.07-.04-.12-.11-.18-.16Z"/><path class="cls-3" d="m57.35,22.39c0,11.1,0,22.2,0,33.3,0,.16,0,.31,0,.47-.03.03-.06.06-.1.09-.05,0-.1.02-.15.03-.16-.11-.32-.23-.48-.33-.31-.19-.63-.37-.95-.55-.4-.23-.8-.47-1.21-.7-.49-.28-.99-.55-1.47-.83-.84-.49-1.68-.98-2.52-1.47-.5-.29-1-.59-1.5-.87-.44-.25-.88-.5-1.32-.75-.44-.25-.88-.5-1.32-.75-.75-.44-1.5-.89-2.26-1.33-.7-.4-1.4-.78-2.1-1.18-.85-.49-1.7-.99-2.56-1.49-.44-.25-.88-.5-1.32-.75-.48-.27-.95-.55-1.42-.83-.28-.16-.56-.33-.84-.49-.62-.36-1.24-.72-1.87-1.08-.45-.26-.9-.52-1.35-.78-.41-.24-.83-.49-1.24-.72-.49-.28-.98-.55-1.47-.83-.51-.29-1.02-.59-1.53-.89-.14-.08-.3-.15-.38-.32.59-.35,1.19-.7,1.78-1.06.61-.36,1.23-.68,1.83-1.05.63-.38,1.27-.73,1.91-1.1.93-.54,1.86-1.08,2.79-1.61.44-.25.9-.47,1.33-.74.65-.42,1.34-.78,2.01-1.18.7-.42,1.41-.82,2.12-1.23.9-.52,1.81-1.04,2.71-1.57.87-.5,1.73-1,2.6-1.5.53-.3,1.05-.6,1.58-.9.64-.36,1.28-.72,1.91-1.08.68-.4,1.36-.81,2.04-1.21.65-.38,1.3-.74,1.95-1.11.51-.3,1.02-.6,1.53-.9.37-.21.74-.42,1.1-.63.05-.03.11-.03.16-.05Z"/><path class="cls-9" d="m57.25,56.25s.06-.06.1-.09c.03.01.06.02.09.03.06.06.12.12.18.16.45.27.89.53,1.35.8.46.27.93.53,1.4.79.53.3,1.05.61,1.57.91.44.25.88.5,1.32.75.41.24.83.48,1.24.72.5.29,1,.57,1.5.86.43.25.85.49,1.28.74.28.16.56.33.84.49.44.25.88.5,1.32.75.49.28.97.57,1.46.85.98.58,1.97,1.16,2.95,1.73.33.19.67.36,1,.55.39.22.78.45,1.17.67.51.3,1.02.6,1.53.89.83.48,1.65.97,2.48,1.45.65.37,1.3.73,1.95,1.11.62.36,1.24.73,1.86,1.09.63.37,1.28.71,1.91,1.09.35.21.74.35,1.04.64-.37.22-.75.45-1.12.67-1.2.69-2.39,1.39-3.59,2.08-3.39,1.95-6.78,3.9-10.17,5.85-4.7,2.7-9.4,5.41-14.1,8.12-.14.08-.27.21-.46.18,0-.04,0-.09,0-.13.11-.43.08-.87.08-1.3,0-10.55,0-21.1,0-31.65,0-.24,0-.48-.1-.71-.02-.04-.05-.06-.08-.1Z"/><path class="cls-7" d="m27.98,39.32c.08.16.24.23.38.32.51.3,1.02.6,1.53.89.49.28.98.55,1.47.83.42.24.83.48,1.24.72.45.26.9.52,1.35.78.62.36,1.24.72,1.87,1.08.28.16.56.32.84.49.47.28.95.56,1.42.83.44.25.88.5,1.32.75.85.49,1.7,1,2.56,1.49.7.4,1.4.78,2.1,1.18.76.44,1.5.89,2.26,1.33.44.26.88.5,1.32.75.44.25.88.5,1.32.75.5.29,1,.58,1.5.87.84.49,1.68.98,2.52,1.47.49.28.98.55,1.47.83.4.23.8.47,1.21.7.32.18.64.36.95.55.17.1.32.22.48.33-.27.17-.54.35-.82.51-1.25.72-2.49,1.45-3.74,2.17-1.24.71-2.48,1.42-3.71,2.13-1.16.67-2.32,1.35-3.48,2.02-1.04.6-2.08,1.19-3.12,1.79-.97.56-1.93,1.12-2.89,1.68-1.03.59-2.06,1.18-3.09,1.77-.97.56-1.93,1.12-2.9,1.68-.83.48-1.67.96-2.5,1.44-.93.54-1.86,1.07-2.79,1.61-.06.03-.1.09-.15.14-.09-.01-.11-.08-.11-.15,0-.23-.02-.45-.01-.68.01-1.13.03-2.26.04-3.39,0-.9,0-1.81,0-2.71,0-2.11,0-4.21,0-6.32,0-4.31-.02-8.62-.02-12.94,0-2.39,0-4.78,0-7.17,0-.13,0-.25,0-.38,0-.1.09-.14.17-.16Z"/><path class="cls-8" d="m51.64,13.96c.22-.4.42-.8.65-1.19,1.33-2.31,2.67-4.62,4.01-6.93.21-.35.41-.71.62-1.06.05-.08.11-.15.17-.23.15.09.2.23.27.34.87,1.5,1.74,3.01,2.61,4.51.82,1.42,1.64,2.84,2.46,4.26.04.07.07.15.11.23,0,.06-.01.12-.02.18-.27,0-.54,0-.81,0-3.21,0-6.42,0-9.63,0-.14,0-.28,0-.42-.01,0-.03-.02-.07-.02-.1Z"/><path class="cls-8" d="m13.86,51.41c.02.06.05.1.05.14,0,3.11,0,6.21,0,9.36-.11-.04-.19-.06-.25-.1-1.18-.68-2.35-1.35-3.52-2.03-1.39-.81-2.79-1.61-4.18-2.42-.09-.05-.18-.12-.31-.2.11-.09.19-.16.28-.22.78-.45,1.57-.9,2.35-1.35,1.54-.89,3.08-1.78,4.62-2.67.26-.15.52-.29.78-.44.06-.03.12-.04.2-.07Z"/><path class="cls-8" d="m100.91,51.41c.1.04.19.06.27.1.71.41,1.42.82,2.13,1.23,1.81,1.04,3.62,2.09,5.43,3.13.13.07.29.12.36.28-.03.04-.05.08-.09.1-2.69,1.55-5.37,3.11-8.04,4.65-.12-.04-.1-.12-.1-.19,0-.1,0-.2,0-.3,0-2.84,0-5.68,0-8.52,0-.15-.03-.31.04-.49Z"/><path class="cls-8" d="m51.64,99.84c.22.4.42.8.65,1.19,1.33,2.31,2.67,4.62,4.01,6.93.21.35.41.71.62,1.06.05.08.11.15.17.23.15-.09.2-.23.27-.34.87-1.5,1.74-3.01,2.61-4.51.82-1.42,1.64-2.84,2.46-4.26.04-.07.07-.15.11-.23,0-.06-.01-.12-.02-.18-.27,0-.54,0-.81,0-3.21,0-6.42,0-9.63,0-.14,0-.28,0-.42.01,0,.03-.02.07-.02.1Z"/><path class="cls-1" d="m123,67.62c0-1.04.01-2.08.01-3.12,0-2.57,0-5.13,0-7.7,0-.09,0-.18-.01-.28.05-.84.09-1.68.17-2.52.04-.41.13-.81.24-1.21.16-.58.35-1.16.55-1.73.4-1.11.96-2.14,1.68-3.07.3-.38.6-.76.95-1.1,1.34-1.31,2.91-2.22,4.72-2.71,1.51-.41,3.05-.56,4.61-.5.08,0,.16,0,.24.01,1.73.18,3.39.59,4.93,1.4.9.47,1.74,1.04,2.35,1.87.04.05.1.08.16.13.13-.13.08-.28.08-.42,0-4.02,0-8.03.01-12.05,0-1.62,0-3.25,0-4.87,0-.15,0-.29,0-.44.02-.48.22-.68.71-.69.17,0,.34,0,.52,0,.81,0,1.61,0,2.42,0,.57,0,.81.21.82.77.02.98,0,1.95,0,2.93.01,9.47.03,18.94.04,28.41,0,7.01,0,14.03,0,21.04,0,.17,0,.34,0,.52-.03.54-.29.81-.83.85-.07,0-.13,0-.2,0-.82,0-1.64,0-2.46,0-.12,0-.24,0-.36-.01-.43-.06-.65-.31-.66-.75,0-.73,0-1.45,0-2.18,0-.14,0-.28,0-.51-.12.11-.19.16-.24.22-1.64,2.04-3.8,3.2-6.36,3.6-.98.15-1.96.19-2.96.13-1.65-.1-3.2-.51-4.66-1.25-2.39-1.22-4.11-3.11-5.23-5.54-.56-1.22-.9-2.5-1.08-3.83-.14-1.04-.13-2.08-.13-3.12,0-.77,0-1.53-.01-2.3Zm4.53-3.79h0c0,2.32,0,4.65,0,6.97,0,.46.02.92.07,1.38.16,1.47.63,2.83,1.48,4.05,1.05,1.5,2.45,2.5,4.23,2.92.88.21,1.77.23,2.67.14.95-.09,1.88-.24,2.78-.57,2.23-.81,3.74-2.32,4.47-4.59.35-1.09.45-2.22.46-3.36,0-4.29,0-8.58-.01-12.88,0-.85.07-1.71-.13-2.56-.1-.44-.08-.91-.19-1.35-.44-1.83-1.37-3.36-2.93-4.47-1.34-.95-2.86-1.39-4.48-1.48-.72-.04-1.46-.02-2.17.08-2.53.34-4.35,1.66-5.38,4.01-.58,1.31-.83,2.7-.85,4.12-.03,2.52,0,5.04,0,7.57Z"/><path class="cls-6" d="m166.36,83.68c-.6,0-1.21,0-1.81,0-.43-.05-.86-.13-1.3-.14-.54,0-1.05-.16-1.56-.3-.52-.14-1.04-.33-1.55-.51-.99-.36-1.88-.9-2.72-1.52-1.11-.82-2.02-1.84-2.76-3-.58-.92-1.05-1.89-1.31-2.95-.12-.5-.29-.99-.37-1.5-.08-.51-.09-1.02-.09-1.54,0-4.04,0-8.08,0-12.13,0-1.2-.01-2.4,0-3.61,0-.54.06-1.08.08-1.62.05-1.35.43-2.62.95-3.86.64-1.54,1.57-2.91,2.8-4.05,1.09-1.01,2.34-1.77,3.72-2.32.79-.32,1.61-.54,2.45-.69,1.67-.31,3.35-.41,5.04-.18,1.94.26,3.75.88,5.39,1.97,1.67,1.1,2.95,2.55,3.79,4.37.34.73.52,1.51.69,2.29.17.82.16,1.65.16,2.48,0,1.65,0,3.3,0,4.95,0,.65-.17,1.24-.54,1.78-.39.57-.93.93-1.57,1.13-.78.25-1.58.39-2.39.51-.48.07-.95.21-1.43.29-.51.09-1.03.12-1.52.26-.48.14-.98.08-1.44.29-.28.13-.63.12-.95.18-.42.07-.83.16-1.25.23-.4.06-.8.1-1.19.17-.42.08-.83.2-1.25.29-.34.07-.68.13-1.03.18-.37.06-.74.11-1.11.18-.52.09-1.04.19-1.56.29-.56.11-1.11.22-1.67.33-.46.08-.91.16-1.37.23-.25.04-.3.07-.3.36,0,.88,0,1.77,0,2.65,0,.88-.02,1.77.02,2.65.08,1.72.6,3.3,1.67,4.67.99,1.28,2.29,2.11,3.86,2.52,1.13.29,2.28.36,3.44.26.63-.06,1.25-.15,1.86-.33,1.7-.48,3.07-1.42,4.06-2.9.49-.73.77-1.56.97-2.41.15-.66.3-1.32.24-2.01-.03-.34.2-.57.55-.57,1.11,0,2.22,0,3.33.01.34,0,.55.21.55.54,0,.66,0,1.32-.14,1.97-.05.2-.06.41-.09.62-.16,1.21-.53,2.35-1.08,3.43-.49.97-1.12,1.84-1.88,2.61-1.1,1.11-2.38,1.9-3.83,2.47-.9.36-1.84.55-2.77.78-.45.11-.93.07-1.4.1-.13,0-.26.03-.39.05Zm7.05-24.95c0-.07.03-.14.03-.22,0-1.53.04-3.06-.01-4.59-.08-2.33-1.22-3.98-3.3-5-1.08-.53-2.24-.77-3.43-.85-1.31-.1-2.61-.05-3.89.3-1.5.4-2.77,1.15-3.72,2.4-1.11,1.46-1.56,3.15-1.67,4.94-.05.82-.06,1.64-.06,2.45,0,1.12.02,2.24.04,3.36,0,.08.02.15.03.22.34.03,15.54-2.82,15.99-3Z"/><path class="cls-1" d="m248.99,83.59c-.05,0-.11-.01-.16-.02-.13-.02-.26-.04-.38-.06-.06,0-.11-.02-.17-.02-.62-.16-1.26-.29-1.87-.49-3.12-1.04-5.47-3-6.92-5.98-.16-.33-.31-.67-.46-1.01-.02-.05-.03-.1-.05-.14-.18-.77-.37-1.53-.55-2.3,0-.05,0-.11-.01-.16-.02-.19-.04-.37-.07-.56-.02-.21-.03-.43-.05-.64,0-1.17,0-2.35,0-3.52,0-.41-.01-.82-.02-1.23,0-.97.01-1.94.01-2.91,0-.93,0-1.86-.01-2.79,0-.05.02-.1.02-.16,0-1.85,0-3.7,0-5.55.05-.47.12-.94.13-1.41.02-.71.18-1.39.37-2.05.48-1.66,1.23-3.18,2.32-4.53.17-.21.4-.38.59-.58.26-.27.5-.57.78-.81.41-.34.83-.67,1.28-.96,1.17-.74,2.43-1.26,3.77-1.59,1.47-.36,2.96-.5,4.47-.43.54.02,1.07.1,1.61.15.07,0,.13,0,.2,0,.34.08.68.17,1.03.25,1.68.37,3.21,1.07,4.57,2.12.22.17.44.33.66.5,0,0,0,0,0,0,.29.29.58.58.88.87,0,0,0,0,0,0,.06.09.11.18.18.26.75.88,1.32,1.87,1.69,2.96.19.56.32,1.14.48,1.7,0,.05.02.09.02.14.01.11.02.21.03.32.01.16.03.32.04.48,0,2.15.01,4.29.01,6.44,0,.14-.02.29-.03.43-.01.08-.02.17-.03.25-.13.54-.39,1-.74,1.42-.02.02-.05.05-.07.07-.56.44-1.19.73-1.89.86-.32.06-.65.12-.97.18-2.51.47-5.02.93-7.53,1.4-1.5.28-3,.56-4.5.84-.85.16-1.7.33-2.56.5h-.03s-.03.02-.03.02c-.66.12-1.33.23-1.99.35-.24.03-.23.19-.23.38,0,1.33,0,2.65,0,3.98,0,.42.02.84.03,1.26.02.16.03.32.05.48,0,.08.01.16.02.24,0,.08-.04.16-.02.23.21.69.37,1.41.65,2.06,1.15,2.61,3.18,4.05,6,4.41.05,0,.11.01.16.02.79.13,1.59.12,2.38,0,.08-.01.16-.02.25-.04.27-.04.55-.06.82-.12,1.4-.29,2.66-.87,3.69-1.87,1.21-1.18,1.83-2.65,2.04-4.31,0-.08.01-.16.02-.24.01-.13.02-.26.03-.39.02-.29.04-.58.06-.88.13-.11.26-.23.39-.34,1.22,0,2.43,0,3.65,0,.08.04.15.08.23.12,0,0,0,0,0,0,.14.24.18.51.16.78-.02.21-.02.41-.02.62,0,.16-.02.32-.03.49-.02.16-.03.32-.05.48,0,.08-.02.16-.03.24-.03.17-.06.34-.09.5-.28,1.49-.74,2.91-1.57,4.19-.37.57-.82,1.09-1.23,1.64-.13.13-.25.25-.38.38-.62.51-1.24,1.01-1.94,1.41-1.39.8-2.88,1.28-4.45,1.54-.17.03-.34.06-.5.09-.08,0-.16.02-.24.03-.56.04-1.12.1-1.69.1-.73,0-1.47-.06-2.2-.1Zm-6.15-21.82c.16-.01.31-.01.45-.04,1.37-.26,2.74-.52,4.1-.78,1.23-.23,2.45-.47,3.68-.7.87-.16,1.73-.32,2.6-.49,1.62-.31,3.24-.62,4.86-.93.37-.07.37-.08.37-.46,0-.96,0-1.93,0-2.89,0-.71-.02-1.42-.07-2.13-.06-.79-.32-1.52-.73-2.2-.81-1.35-2.04-2.16-3.5-2.62-2.03-.64-4.11-.7-6.17-.21-2.47.58-4.16,2.09-5.01,4.5-.38,1.08-.57,2.2-.59,3.34-.03,1.74-.01,3.49-.01,5.23,0,.12.01.23.02.39Z"/><path class="cls-8" d="m195.15,83.69c-.53,0-1.05,0-1.58,0-.43-.05-.86-.12-1.29-.13-.48,0-.93-.11-1.39-.21-1.08-.25-2.12-.62-3.1-1.16-1.36-.75-2.54-1.71-3.5-2.95-.55-.71-1.05-1.44-1.43-2.25-.52-1.09-.93-2.21-1.11-3.42-.1-.63-.1-1.25-.08-1.88,0-.32.16-.46.48-.52.04,0,.08-.01.12-.01,1.07,0,2.14-.01,3.21,0,.45,0,.68.24.73.68.02.21.05.42.05.63.02,1.3.46,2.47,1.17,3.54.86,1.28,2.04,2.16,3.49,2.7,1.25.47,2.55.66,3.88.61,1.67-.07,3.16-.62,4.48-1.67.48-.38.88-.83,1.22-1.33.31-.46.53-.98.69-1.52.18-.58.17-1.16.15-1.75-.02-.64-.2-1.26-.42-1.85-.27-.73-.73-1.36-1.27-1.93-.64-.67-1.4-1.17-2.19-1.63-.68-.39-1.37-.75-2.07-1.12-1.3-.69-2.61-1.39-3.91-2.08-.82-.43-1.64-.86-2.46-1.3-.87-.48-1.76-.93-2.52-1.58-.23-.2-.43-.43-.64-.64-.45-.44-.93-.86-1.27-1.39-.23-.35-.45-.7-.65-1.07-.31-.59-.64-1.17-.81-1.82-.16-.6-.36-1.19-.35-1.82,0-.57,0-1.13-.02-1.7-.05-1.14.31-2.18.71-3.21.53-1.35,1.34-2.52,2.4-3.5.88-.81,1.89-1.42,3-1.87.68-.27,1.39-.48,2.11-.61,1.19-.22,2.4-.34,3.61-.28.13,0,.26,0,.4,0,.05,0,.11,0,.16,0,1.11.11,2.21.29,3.28.62,1.32.41,2.52,1.03,3.59,1.92,1,.83,1.74,1.85,2.28,3.02.53,1.16.81,2.38.85,3.66.02.56-.1.69-.65.86-.51.16-1.03.23-1.56.28-.17.02-.33.06-.5.08-.31.04-.62.09-.93.1-.4.01-.58-.16-.65-.53-.1-.54-.17-1.1-.33-1.63-.37-1.27-1.07-2.32-2.23-3.02-.64-.39-1.34-.59-2.05-.8-1.13-.32-2.28-.31-3.41-.19-1.33.14-2.62.51-3.71,1.37-.72.57-1.25,1.28-1.58,2.13-.5,1.26-.56,2.56-.13,3.86.4,1.22,1.18,2.14,2.28,2.77,1,.57,2.04,1.1,3.05,1.66,1.19.65,2.37,1.32,3.55,1.97.66.36,1.32.71,1.98,1.07,1.19.64,2.38,1.28,3.45,2.13,1.27,1,2.3,2.18,3.01,3.64.46.94.73,1.92.88,2.96.12.8.17,1.6.14,2.4-.07,2.01-.7,3.83-1.9,5.46-.78,1.05-1.74,1.88-2.84,2.55-.9.54-1.88.93-2.9,1.19-.91.24-1.83.37-2.76.42-.08,0-.15.03-.23.05Z"/><path class="cls-1" d="m278.42,83.6c-.08-.01-.16-.02-.25-.03-.11,0-.21,0-.32,0-.08-.03-.16-.05-.24-.08-.28-.06-.57-.11-.85-.18-1.94-.45-3.7-1.25-5.17-2.62-.09-.09-.21-.16-.31-.24,0,0,0,0,0,0-.24-.28-.48-.56-.71-.84-1.65-2.07-2.39-4.49-2.73-7.07-.02-.11-.03-.21-.05-.32,0-.13-.02-.26-.03-.4-.01-.16-.02-.32-.03-.49-.02-.26-.03-.52-.05-.78,0-.91.01-1.82.01-2.73,0-3.69,0-7.38,0-11.07,0-.05,0-.1-.01-.16.01-.18.03-.36.04-.54.01-.16.02-.32.03-.49,0-.11.02-.21.03-.32.02-.11.03-.21.05-.32.02-.16.04-.32.06-.48,0-.05,0-.11.01-.16.06-.31.12-.62.18-.93.31-1.59.81-3.11,1.65-4.51.32-.53.7-1.02,1.05-1.53,0,0,0,0,0,0,.08-.07.16-.14.23-.21,1.25-1.35,2.78-2.24,4.52-2.79.91-.29,1.84-.45,2.78-.59.19-.02.37-.03.56-.05.16,0,.32-.01.48-.02.71,0,1.43,0,2.14,0,.13,0,.26.01.39.02.13.02.27.03.4.05.99.15,1.98.32,2.93.65,1.14.4,2.2.95,3.13,1.73.17.14.34.29.51.43.1.1.2.2.3.3.08.1.15.22.24.31.71.77,1.24,1.66,1.66,2.62.51,1.17.79,2.39,1,3.64,0,.08,0,.16,0,.24-.1.33-.38.46-.68.54-.49.14-.99.27-1.49.4-.43.12-.86.24-1.3.34-.4.09-.64-.05-.74-.44-.04-.15-.06-.31-.08-.47-.15-.95-.43-1.85-.92-2.68-1.08-1.83-2.69-2.89-4.79-3.2-.06-.01-.11-.02-.17-.03-.16-.02-.32-.04-.48-.06-.11,0-.21-.01-.32-.02-.48,0-.95,0-1.43,0-.13,0-.26.01-.4.02-.19.02-.37.04-.56.06-.06.01-.11.02-.17.03-1.24.15-2.38.59-3.36,1.37-1.77,1.42-2.47,3.39-2.75,5.55-.02.11-.03.21-.05.32-.02.13-.04.26-.06.4,0,.11-.02.21-.03.32,0,.11-.01.21-.02.32-.02.55-.04,1.11-.06,1.66,0,.1-.02.21-.02.31,0,3.71,0,7.43,0,11.14,0,.12.01.24.02.35.02.37.04.74.06,1.11,0,.11.01.21.02.32.01.08.02.17.03.25.02.1.03.2.05.31.02.11.04.21.06.32.01.12.01.24.04.35.18.88.46,1.73.86,2.53.35.69.75,1.36,1.32,1.9.1.1.2.2.3.31,1.44,1.42,3.21,1.98,5.18,2.03.16,0,.32,0,.48,0,.32-.02.63-.05.95-.07.03,0,.06,0,.08,0,.68-.11,1.34-.27,1.97-.55.65-.29,1.27-.64,1.77-1.17,0,0,0,0,0,0,.21-.21.42-.42.64-.64,0,0,0,0,0,0,.25-.32.53-.62.75-.95.55-.85.96-1.77,1.14-2.79.02-.07.03-.15.05-.22.03-.27.06-.54.1-.81.03-.13.06-.26.08-.4.03-.25.07-.5.07-.74,0-.46.2-.75.65-.86.98,0,1.96,0,2.93,0,.54.04.9.42.9,1.09-.01,2.48-.59,4.81-1.86,6.95-1.7,2.85-4.24,4.53-7.46,5.21-1.08.23-2.17.31-3.27.3-.57,0-1.13-.06-1.7-.09Z"/><path class="cls-1" d="m226.54,63.5c0,.88,0,1.76-.01,2.64,0,1.63-.02,3.26-.03,4.89,0,.16.02.31.04.47,0,.19.02.37.02.56,0,.24.01.48.02.71.02.19.04.37.06.56.02.11.04.21.05.32,0,.6.18,1.17.37,1.73.48,1.43,1.43,2.4,2.88,2.88.7.23,1.42.38,2.16.43.64.04,1.29.08,1.93.12.13,0,.26,0,.4,0,.53,0,.82.26.83.79.02.9.02,1.79,0,2.69-.02.65-.28.88-.95.87-.55,0-1.11-.04-1.66-.05-.15,0-.31.04-.46.06-.04-.15-.14-.16-.27-.1-.18,0-.36,0-.54,0-.03-.11-.08-.13-.15-.03-.18-.04-.36-.08-.54-.1-.38-.06-.78-.08-1.15-.18-.65-.18-1.29-.37-1.91-.62-1.27-.52-2.37-1.28-3.25-2.35-.7-.85-1.23-1.79-1.58-2.82-.22-.65-.38-1.34-.52-2.02-.24-1.19-.25-2.4-.26-3.61,0-7.17,0-14.34,0-21.52,0-.17,0-.34,0-.54-.17,0-.29-.02-.42-.02-.95,0-1.9,0-2.85,0-.65,0-.84-.08-.85-.86-.01-.86,0-1.72,0-2.58,0-.11,0-.21.02-.32.03-.35.2-.52.55-.55.13-.01.26-.01.4-.01.94,0,1.88,0,2.81,0,.1,0,.2-.01.35-.02,0-.16,0-.3,0-.44,0-4.4,0-8.8,0-13.19,0-.16,0-.32.01-.47.04-.42.21-.59.63-.6.48-.01.95,0,1.43,0,.53,0,1.06,0,1.59,0,.56,0,.86.3.86.86,0,2.54,0,5.07,0,7.61,0,1.98,0,3.96,0,5.94,0,.08.01.16.02.28.17.01.34.04.5.04,2.05,0,4.09-.02,6.14-.03.53,0,1.06.02,1.58.04.46.02.71.26.72.72.01.94.01,1.88,0,2.81,0,.38-.27.79-.84.79-2.54-.02-5.07,0-7.61,0-.15,0-.31,0-.49,0-.02.48-.05.91-.05,1.35,0,1.68,0,3.35,0,5.03,0,.09.03.18.04.27,0,.13.01.26.02.39,0,1.23-.01,2.47-.01,3.7,0,.56.01,1.13.02,1.69,0,.61-.01,1.22-.02,1.82Z"/><path class="cls-1" d="m214.59,63.69c0,5.64,0,11.28,0,16.92,0,.59,0,1.19-.01,1.78,0,.45-.29.75-.73.75-1,0-2.01,0-3.01,0-.45,0-.63-.17-.72-.62-.03-.13-.03-.26-.03-.39,0-1.84,0-3.67,0-5.51,0-.62,0-1.24,0-1.86,0-.99.03-1.98.03-2.97,0-1.13-.02-2.27-.03-3.4,0-.71.03-1.43.02-2.14,0-1.76-.03-3.51-.03-5.27,0-.98.03-1.95.03-2.93,0-1.75.01-3.51,0-5.26,0-2.54-.03-5.07-.04-7.61,0-.16.01-.32.05-.47.07-.35.21-.46.56-.49.11,0,.21,0,.32,0,.85,0,1.69,0,2.54,0,.09,0,.19,0,.28,0,.47.04.79.31.78.81-.02,1.07,0,2.14,0,3.21,0,5.15,0,10.3,0,15.46h0Z"/><path class="cls-1" d="m210.06,35.2c-.29-.11-.42-.32-.43-.62,0-.13-.02-.26-.02-.39,0-1.5,0-3.01,0-4.51,0-.14.01-.29.03-.43.04-.37.2-.55.57-.61.08-.01.16-.01.24-.01,1.27,0,2.53,0,3.8,0,.17,0,.35.07.52.13.28.11.38.35.38.64,0,1.7,0,3.41,0,5.11,0,.47-.27.71-.75.71-1.31,0-2.61,0-3.92,0-.11,0-.21,0-.32.01-.03,0-.06-.02-.09-.02Z"/></svg>